{
    "asset" : {
        "generator" : "Khronos glTF Blender I/O v1.7.33",
        "version" : "2.0"
    },
    "scene" : 0,
    "scenes" : [
        {
            "name" : "Scene",
            "nodes" : [
                7
            ]
        }
    ],
    "nodes" : [
        {
            "mesh" : 0,
            "name" : "Bed Legs"
        },
        {
            "mesh" : 1,
            "name" : "Mattress",
            "scale" : [
                0.8985231518745422,
                2.389725685119629,
                0.9362530708312988
            ],
            "translation" : [
                0.0021495819091796875,
                3.239074230194092,
                -0.09250065684318542
            ]
        },
        {
            "children" : [
                0,
                1
            ],
            "mesh" : 2,
            "name" : "Bed",
            "scale" : [
                0.5,
                0.019999999552965164,
                1
            ],
            "translation" : [
                -0.7115083336830139,
                0.11889740824699402,
                0.5351642370223999
            ]
        },
        {
            "mesh" : 3,
            "name" : "Pillow",
            "rotation" : [
                -0.29690632224082947,
                0,
                0,
                0.9549066424369812
            ],
            "scale" : [
                0.15396705269813538,
                0.012346629984676838,
                0.10314160585403442
            ],
            "translation" : [
                -0.6177077889442444,
                0.23761136829853058,
                0.8785429000854492
            ]
        },
        {
            "mesh" : 3,
            "name" : "Pillow.001",
            "rotation" : [
                -0.29690632224082947,
                0,
                0,
                0.9549066424369812
            ],
            "scale" : [
                -0.15396705269813538,
                0.012346629053354263,
                0.10314160585403442
            ],
            "translation" : [
                -0.8180273175239563,
                0.23761136829853058,
                0.8785429000854492
            ]
        },
        {
            "mesh" : 4,
            "name" : "Room Floor Reference"
        },
        {
            "mesh" : 5,
            "name" : "Table",
            "scale" : [
                0.5,
                0.019999999552965164,
                1
            ],
            "translation" : [
                0.7519965171813965,
                0.5,
                0
            ]
        },
        {
            "children" : [
                2,
                3,
                4,
                5,
                6
            ],
            "name" : "Room Space"
        }
    ],
    "meshes" : [
        {
            "name" : "Cube.006",
            "primitives" : [
                {
                    "attributes" : {
                        "POSITION" : 0,
                        "NORMAL" : 1,
                        "TEXCOORD_0" : 2
                    },
                    "indices" : 3
                }
            ]
        },
        {
            "name" : "Cube.003",
            "primitives" : [
                {
                    "attributes" : {
                        "POSITION" : 4,
                        "NORMAL" : 5,
                        "TEXCOORD_0" : 6
                    },
                    "indices" : 7
                }
            ]
        },
        {
            "name" : "Cube.002",
            "primitives" : [
                {
                    "attributes" : {
                        "POSITION" : 8,
                        "NORMAL" : 9,
                        "TEXCOORD_0" : 10
                    },
                    "indices" : 11
                }
            ]
        },
        {
            "name" : "Cube.004",
            "primitives" : [
                {
                    "attributes" : {
                        "POSITION" : 12,
                        "NORMAL" : 13,
                        "TEXCOORD_0" : 14
                    },
                    "indices" : 15
                }
            ]
        },
        {
            "name" : "Plane.001",
            "primitives" : [
                {
                    "attributes" : {
                        "POSITION" : 16,
                        "NORMAL" : 17,
                        "TEXCOORD_0" : 18
                    },
                    "indices" : 19
                }
            ]
        },
        {
            "name" : "Cube.001",
            "primitives" : [
                {
                    "attributes" : {
                        "POSITION" : 20,
                        "NORMAL" : 21,
                        "TEXCOORD_0" : 22
                    },
                    "indices" : 23
                }
            ]
        }
    ],
    "accessors" : [
        {
            "bufferView" : 0,
            "componentType" : 5126,
            "count" : 48,
            "max" : [
                0.43852004408836365,
                1.055267333984375,
                0.3910444974899292
            ],
            "min" : [
                -0.43754842877388,
                -6.047901153564453,
                0.3549678921699524
            ],
            "type" : "VEC3"
        },
        {
            "bufferView" : 1,
            "componentType" : 5126,
            "count" : 48,
            "type" : "VEC3"
        },
        {
            "bufferView" : 2,
            "componentType" : 5126,
            "count" : 48,
            "type" : "VEC2"
        },
        {
            "bufferView" : 3,
            "componentType" : 5123,
            "count" : 72,
            "type" : "SCALAR"
        },
        {
            "bufferView" : 4,
            "componentType" : 5126,
            "count" : 112,
            "max" : [
                0.5000000596046448,
                0.5000001192092896,
                0.5
            ],
            "min" : [
                -0.5000000596046448,
                -0.5000001192092896,
                -0.5
            ],
            "type" : "VEC3"
        },
        {
            "bufferView" : 5,
            "componentType" : 5126,
            "count" : 112,
            "type" : "VEC3"
        },
        {
            "bufferView" : 6,
            "componentType" : 5126,
            "count" : 112,
            "type" : "VEC2"
        },
        {
            "bufferView" : 7,
            "componentType" : 5123,
            "count" : 180,
            "type" : "SCALAR"
        },
        {
            "bufferView" : 8,
            "componentType" : 5126,
            "count" : 160,
            "max" : [
                0.4990282952785492,
                10.748659133911133,
                0.4205988049507141
            ],
            "min" : [
                -0.5009716749191284,
                -6.174694061279297,
                -0.5794011950492859
            ],
            "type" : "VEC3"
        },
        {
            "bufferView" : 9,
            "componentType" : 5126,
            "count" : 160,
            "type" : "VEC3"
        },
        {
            "bufferView" : 10,
            "componentType" : 5126,
            "count" : 160,
            "type" : "VEC2"
        },
        {
            "bufferView" : 11,
            "componentType" : 5123,
            "count" : 318,
            "type" : "SCALAR"
        },
        {
            "bufferView" : 12,
            "componentType" : 5126,
            "count" : 246,
            "max" : [
                0.5481688380241394,
                1.4977760314941406,
                0.536931037902832
            ],
            "min" : [
                -0.536931037902832,
                -0.8771892786026001,
                -0.5369311571121216
            ],
            "type" : "VEC3"
        },
        {
            "bufferView" : 13,
            "componentType" : 5126,
            "count" : 246,
            "type" : "VEC3"
        },
        {
            "bufferView" : 14,
            "componentType" : 5126,
            "count" : 246,
            "type" : "VEC2"
        },
        {
            "bufferView" : 15,
            "componentType" : 5123,
            "count" : 390,
            "type" : "SCALAR"
        },
        {
            "bufferView" : 16,
            "componentType" : 5126,
            "count" : 12,
            "max" : [
                1,
                0,
                1
            ],
            "min" : [
                -1,
                0,
                -1
            ],
            "type" : "VEC3"
        },
        {
            "bufferView" : 17,
            "componentType" : 5126,
            "count" : 12,
            "type" : "VEC3"
        },
        {
            "bufferView" : 18,
            "componentType" : 5126,
            "count" : 12,
            "type" : "VEC2"
        },
        {
            "bufferView" : 19,
            "componentType" : 5123,
            "count" : 30,
            "type" : "SCALAR"
        },
        {
            "bufferView" : 20,
            "componentType" : 5126,
            "count" : 120,
            "max" : [
                0.5,
                0.5,
                0.5
            ],
            "min" : [
                -0.5,
                -25.103031158447266,
                -0.5
            ],
            "type" : "VEC3"
        },
        {
            "bufferView" : 21,
            "componentType" : 5126,
            "count" : 120,
            "type" : "VEC3"
        },
        {
            "bufferView" : 22,
            "componentType" : 5126,
            "count" : 120,
            "type" : "VEC2"
        },
        {
            "bufferView" : 23,
            "componentType" : 5123,
            "count" : 180,
            "type" : "SCALAR"
        }
    ],
    "bufferViews" : [
        {
            "buffer" : 0,
            "byteLength" : 576,
            "byteOffset" : 0
        },
        {
            "buffer" : 0,
            "byteLength" : 576,
            "byteOffset" : 576
        },
        {
            "buffer" : 0,
            "byteLength" : 384,
            "byteOffset" : 1152
        },
        {
            "buffer" : 0,
            "byteLength" : 144,
            "byteOffset" : 1536
        },
        {
            "buffer" : 0,
            "byteLength" : 1344,
            "byteOffset" : 1680
        },
        {
            "buffer" : 0,
            "byteLength" : 1344,
            "byteOffset" : 3024
        },
        {
            "buffer" : 0,
            "byteLength" : 896,
            "byteOffset" : 4368
        },
        {
            "buffer" : 0,
            "byteLength" : 360,
            "byteOffset" : 5264
        },
        {
            "buffer" : 0,
            "byteLength" : 1920,
            "byteOffset" : 5624
        },
        {
            "buffer" : 0,
            "byteLength" : 1920,
            "byteOffset" : 7544
        },
        {
            "buffer" : 0,
            "byteLength" : 1280,
            "byteOffset" : 9464
        },
        {
            "buffer" : 0,
            "byteLength" : 636,
            "byteOffset" : 10744
        },
        {
            "buffer" : 0,
            "byteLength" : 2952,
            "byteOffset" : 11380
        },
        {
            "buffer" : 0,
            "byteLength" : 2952,
            "byteOffset" : 14332
        },
        {
            "buffer" : 0,
            "byteLength" : 1968,
            "byteOffset" : 17284
        },
        {
            "buffer" : 0,
            "byteLength" : 780,
            "byteOffset" : 19252
        },
        {
            "buffer" : 0,
            "byteLength" : 144,
            "byteOffset" : 20032
        },
        {
            "buffer" : 0,
            "byteLength" : 144,
            "byteOffset" : 20176
        },
        {
            "buffer" : 0,
            "byteLength" : 96,
            "byteOffset" : 20320
        },
        {
            "buffer" : 0,
            "byteLength" : 60,
            "byteOffset" : 20416
        },
        {
            "buffer" : 0,
            "byteLength" : 1440,
            "byteOffset" : 20476
        },
        {
            "buffer" : 0,
            "byteLength" : 1440,
            "byteOffset" : 21916
        },
        {
            "buffer" : 0,
            "byteLength" : 960,
            "byteOffset" : 23356
        },
        {
            "buffer" : 0,
            "byteLength" : 360,
            "byteOffset" : 24316
        }
    ],
    "buffers" : [
        {
            "byteLength" : 24676,
            "uri" : "data:application/octet-stream;base64,"
        }
    ]
}
